<?xml version="1.0" encoding="utf-8"?>
<svg version="1.1" xmlns:xlink="http://www.w3.org/1999/xlink" width="26px" height="25px" xmlns="http://www.w3.org/2000/svg">
  <g transform="matrix(1 0 0 1 -23 -12 )">
    <path d="M 25 11.19  C 25.002267296764753 10.393932206493531  24.685712769799327 9.630095856443843  24.121 9.069  L 16.536 1.483  C 14.581447735611093 -0.4658347696593782  11.418552264388905 -0.4658347696593777  9.463999999999999 1.483  L 1.879 9.069  C 1.3142872302006714 9.630095856443845  0.9977327032352431 10.39393220649353  1 11.19  L 1 21.006999999999998  C 1 22.663854249492378  2.3431457505076194 24.006999999999998  4 24  L 22 24  C 23.65685424949238 24.006999999999998  25 22.663854249492378  25 21.006999999999998  L 25 11.19  Z M 16 18.073  L 16 22.007  L 10 22.007  L 10 18.073  C 10 16.416145750507617  11.34314575050762 15.072999999999997  13 15.072999999999997  C 14.65685424949238 15.072999999999997  16 16.416145750507617  16 18.073  Z M 23 11.19  L 23 21.007  C 23 21.559284749830795  22.552284749830793 22.007  22 22.007  L 18 22.007  L 18 18.072999999999997  C 18 15.311576250846032  15.761423749153966 13.072999999999999  13 13.072999999999999  C 10.238576250846032 13.072999999999999  8 15.311576250846032  8 18.072999999999997  L 8 22.007  L 4 22.007  C 3.4477152501692068 22.007  3 21.559284749830795  3 21.007  L 3 11.19  C 3.0009271679103025 10.924979268182076  3.1061890979331253 10.670985464338608  3.2930000000000006 10.482999999999999  L 10.878 2.9  C 12.05154940000643 1.7319237012899982  13.948450599993569 1.7319237012899982  15.122 2.9  L 22.707000000000004 10.486  C 22.893084187627466 10.67324624393204  22.998286818389488 10.926019800438748  23 11.19  Z " fill-rule="nonzero" fill="#01498b" stroke="none" transform="matrix(1 0 0 1 23 12 )" />
  </g>
</svg>