<?xml version="1.0" encoding="utf-8"?>
<svg version="1.1" xmlns:xlink="http://www.w3.org/1999/xlink" width="20px" height="20px" xmlns="http://www.w3.org/2000/svg">
  <g transform="matrix(1 0 0 1 -2 -2 )">
    <path d="M 20 10  C 20 4.476562500000001  15.5234375 0  10 0  C 4.4765625 0  0 4.4765625  0 10  C 0 15.5234375  4.4765625 20  10 20  C 15.5234375 20  20 15.5234375  20 10  Z M 18.125 10  C 18.125 14.480078125  14.48046875 18.125  10 18.125  C 5.51953125 18.125  1.875 14.480078125  1.875 10  C 1.875 5.519921875  5.51953125 1.875  10 1.875  C 14.48046875 1.875  18.125 5.519921875  18.125 10  Z M 14.151562499999999 6.54296875  C 14.48828125 6.1484375  14.4375 5.5546875  14.04296875 5.22265625  C 13.648046874999999 4.887578124999999  13.055468750000001 4.9376171875  12.721484375000001 5.333125  L 10 8.546875  L 7.27734375 5.33203125  C 6.9453125 4.9375  6.3515625 4.88671875  5.95703125 5.22265625  C 5.5625 5.5546875  5.51171875 6.1484375  5.84765625 6.54296875  L 8.7734375 10  L 5.8484375 13.45703125  C 5.513984375 13.851953125000001  5.5633984375 14.444140625  5.95890625 14.778515624999999  C 6.1328125 14.92578125  6.34765625 15  6.52734375 15  C 6.7934375000000005 15  7.058203125 14.887070312499999  7.24375 14.66796875  L 10 11.453125  L 12.721484375000001 14.669531249999999  C 12.90625 14.88671875  13.171875 15  13.4375 15  C 13.6511328125 15  13.86640625 14.927382812500001  14.0421875 14.778437499999999  C 14.4375 14.443984375  14.487109375 13.851874999999998  14.15265625 13.456953125  L 11.2265625 10  L 14.151562499999999 6.54296875  Z " fill-rule="nonzero" fill="#4a4a4a" stroke="none" transform="matrix(1 0 0 1 2 2 )" />
  </g>
</svg>