<?xml version="1.0" encoding="utf-8"?>
<svg version="1.1" xmlns:xlink="http://www.w3.org/1999/xlink" width="24px" height="22px" xmlns="http://www.w3.org/2000/svg">
  <g transform="matrix(1 0 0 1 -24 -12 )">
    <path d="M 24 7  C 23.99669388366542 4.23994684899044  21.76005315100956 2.003306116334582  19 2  L 12.471999999999998 2  C 12.317341858316748 2.001020924303743  12.164480368249226 1.966823722946355  12.025000000000002 1.9  L 8.869 0.31600000000000006  C 8.452392494096815 0.10854513355168804  7.993402176969816 0.000386341447190075  7.528 0  L 5 0  C 2.2399468489904426 0.0033061163345793343  0.0033061163345797706 2.239946848990442  0 5  L 0 17  C 0.0033061163345809923 19.76005315100955  2.2399468489904444 21.99669388366542  5 22  L 19 22  C 21.760053151009554 21.99669388366542  23.99669388366542 19.760053151009558  24 17  L 24 7  Z M 2 5  C 2 3.3431457505076208  3.34314575050762 2  5 2  L 7.528 2  C 7.68265814168325 1.9989790756962575  7.835519631750776 2.0331762770536455  7.975 2.1  L 11.130999999999998 3.6790000000000007  C 11.547189788611542 3.8881858968095973  12.00620077298903 3.9980610094010776  12.471999999999998 4  L 19 4  C 20.22342449569299 4.001997217357699  21.323071493956004 4.746702381348701  21.779 5.882  L 2 5.994  L 2 5  Z M 22 17  C 22 18.65685424949238  20.65685424949238 20  19 20  L 5 20  C 3.3431457505076185 20  2 18.65685424949238  2 17  L 2 7.994  L 22 7.881  L 22 17  Z " fill-rule="nonzero" fill="#4a4a4a" stroke="none" transform="matrix(1 0 0 1 24 12 )" />
  </g>
</svg>