<?xml version="1.0" encoding="utf-8"?>
<svg version="1.1" xmlns:xlink="http://www.w3.org/1999/xlink" width="20px" height="16px" xmlns="http://www.w3.org/2000/svg">
  <g transform="matrix(1 0 0 1 -2 -4 )">
    <path d="M 10.00000217013842 12.444444444444445  C 7.545141591766149 12.444444444444445  5.555558690199938 10.45486111111111  5.555558690199938 8  C 5.555558690199938 5.545138888888889  7.545141591766149 3.5555555555555554  10.00000217013842 3.5555555555555554  C 12.454862748510688 3.5555555555555554  14.4444456500769 5.545138888888889  14.4444456500769 8  C 14.4444456500769 10.45486111111111  12.454862748510688 12.444444444444445  10.00000217013842 12.444444444444445  Z M 10.00000217013842 10.777777777777779  C 11.534724059304677 10.777777777777779  12.77777934509997 9.534722222222221  12.77777934509997 8  C 12.77777934509997 6.465277777777778  11.534724059304677 5.222222222222222  10.00000217013842 5.222222222222222  C 9.975696619857505 5.222222222222222  9.954863291045294 5.222222222222222  9.899307747546064 5.222222222222222  C 9.975696619857505 5.399305555555555  10.00000217013842 5.586805555555555  10.00000217013842 5.777777777777778  C 10.00000217013842 7.003472222222221  9.003474608620964 8  7.777780430169178 8  C 7.586808249390572 8  7.3993082900806675 7.975694444444445  7.222224995176868 7.899305555555555  C 7.222224995176868 7.954861111111111  7.222224995176868 7.975694444444445  7.222224995176868 7.96875  C 7.222224995176868 9.534722222222221  8.465280280972163 10.777777777777779  10.00000217013842 10.777777777777779  Z M 3.3131980657122257 3.020833333333333  C 4.947919933177099 1.5013888888888887  7.194447223427253 0.22222222222222188  10.00000217013842 0.22222222222222188  C 12.805557116849586 0.22222222222222188  15.05208440709974 1.5013888888888887  16.68750071885835 3.020833333333333  C 18.31250036621086 4.527777777777778  19.399305685914566 6.302083333333333  19.91319446328245 7.572916666666666  C 20.02777777174962 7.847222222222221  20.02777777174962 8.152777777777777  19.91319446328245 8.427083333333334  C 19.399305685914566 9.666666666666666  18.31250036621086 11.440972222222223  16.68750071885835 12.979166666666666  C 15.05208440709974 14.5  12.805557116849586 15.777777777777779  10.00000217013842 15.777777777777779  C 7.194447223427253 15.777777777777779  4.947919933177099 14.5  3.3131980657122257 12.979166666666666  C 1.6881984183597185 11.440972222222223  0.602087542949752 9.666666666666666  0.08545571062159057 8.427083333333334  C -0.02848523687386353 8.152777777777777  -0.02848523687386353 7.847222222222221  0.08545571062159057 7.572916666666666  C 0.602087542949752 6.302083333333333  1.6881984183597185 4.527777777777778  3.3131980657122257 3.020833333333333  Z M 10.00000217013842 1.8888888888888884  C 7.736113772544756 1.8888888888888884  5.8750030653205165 2.916666666666666  4.44792004168402 4.239583333333333  C 3.1111147762337725 5.482638888888888  2.1881983098527975 6.927083333333333  1.7166706344030742 8  C 2.1881983098527975 9.041666666666666  3.1111147762337725 10.51736111111111  4.44792004168402 11.760416666666668  C 5.8750030653205165 13.083333333333332  7.736113772544756 14.11111111111111  10.00000217013842 14.11111111111111  C 12.263890567732084 14.11111111111111  14.125001274956324 13.083333333333332  15.552084298592819 11.760416666666668  C 16.888889564043062 10.51736111111111  17.781250481499463 9.041666666666666  18.284722594461243 8  C 17.781250481499463 6.927083333333333  16.888889564043062 5.482638888888888  15.552084298592819 4.239583333333333  C 14.125001274956324 2.916666666666666  12.263890567732084 1.8888888888888884  10.00000217013842 1.8888888888888884  Z " fill-rule="nonzero" fill="#4a4a4a" stroke="none" transform="matrix(1 0 0 1 2 4 )" />
  </g>
</svg>