<?xml version="1.0" encoding="utf-8"?>
<svg version="1.1" xmlns:xlink="http://www.w3.org/1999/xlink" width="22px" height="18px" xmlns="http://www.w3.org/2000/svg">
  <g transform="matrix(1 0 0 1 -1 -3 )">
    <path d="M 1.2705654761904763 0.1691470588235294  L 4.933630952380952 3.069595588235294  C 6.383928571428572 1.9280514705882354  8.24345238095238 1.0588235294117647  10.476190476190476 1.0588235294117647  C 13.121428571428572 1.0588235294117647  15.239583333333334 2.277794117647059  16.781547619047622 3.725735294117647  C 18.313690476190473 5.161764705882352  19.338392857142857 6.852573529411765  19.822916666666664 8.06360294117647  C 19.930952380952377 8.325  19.930952380952377 8.616176470588234  19.822916666666664 8.877573529411766  C 19.38422619047619 9.946323529411766  18.50357142857143 11.451838235294119  17.207142857142856 12.795220588235294  L 20.651190476190475 15.521691176470588  C 20.991666666666667 15.793014705882353  21.05386904761905 16.29264705882353  20.785416666666666 16.636764705882353  C 20.516964285714288 16.98088235294118  20.02261904761905 17.04375  19.682142857142857 16.772426470588236  L 0.30105952380952383 1.419154411764706  C -0.040464285714285717 1.1484926470588237  -0.10034226190476189 0.6495220588235293  0.16735714285714287 0.3042794117647059  C 0.4350892857142857 -0.04089705882352941  0.9287797619047619 -0.10141544117647058  1.2705654761904763 0.1691470588235294  Z M 6.213690476190476 4.086397058823529  L 7.7196428571428575 5.2775735294117645  C 8.45625 4.62904411764706  9.422023809523811 4.235294117647059  10.476190476190476 4.235294117647059  C 12.79077380952381 4.235294117647059  14.666666666666666 6.1312500000000005  14.666666666666666 8.470588235294118  C 14.666666666666666 9.172058823529412  14.49970238095238 9.830514705882353  14.201785714285716 10.412867647058823  L 15.96309523809524 11.809191176470588  C 17.059821428571432 10.680882352941177  17.87172619047619 9.367279411764708  18.2875 8.470588235294118  C 17.812797619047622 7.4481617647058815  16.971428571428568 6.071691176470589  15.711011904761904 4.887132352941176  C 14.36547619047619 3.6264705882352937  12.610714285714284 2.617279411764706  10.476190476190476 2.617279411764706  C 8.822916666666668 2.617279411764706  7.369345238095238 3.233713235294118  6.213690476190476 4.086397058823529  Z M 10.260119047619046 7.289338235294117  L 12.928273809523809 9.403676470588236  C 13.036309523809525 9.112499999999999  13.095238095238095 8.798161764705881  13.095238095238095 8.440808823529412  C 13.095238095238095 7.008088235294117  11.923214285714284 5.793749999999999  10.476190476190476 5.793749999999999  C 10.453273809523811 5.793749999999999  10.433630952380952 5.8235294117647065  10.381250000000001 5.8235294117647065  C 10.453273809523811 5.992279411764706  10.476190476190476 6.170955882352941  10.476190476190476 6.3231617647058815  C 10.476190476190476 6.690441176470587  10.397619047619049 7.008088235294117  10.260119047619046 7.289338235294117  Z M 13.236011904761906 13.715073529411764  L 14.607738095238094 14.806985294117647  C 13.419345238095238 15.455514705882353  12.04107142857143 15.882352941176471  10.476190476190476 15.882352941176471  C 7.83095238095238 15.882352941176471  5.7127976190476195 14.66470588235294  4.170833333333333 13.215441176470588  C 2.6393452380952382 11.749632352941177  1.6152976190476191 10.058823529411764  1.1281547619047618 8.877573529411766  C 1.0207738095238095 8.616176470588234  1.0207738095238095 8.325  1.1281547619047618 8.06360294117647  C 1.4404761904761905 7.305882352941176  1.9737797619047617 6.326470588235294  2.720208333333334 5.34375  L 3.954761904761905 6.326470588235294  C 3.3425595238095234 7.0974264705882355  2.938571428571429 7.8617647058823525  2.666517857142857 8.440808823529412  C 3.1107738095238093 9.463235294117647  3.980952380952381 10.869485294117647  5.241369047619047 12.05404411764706  C 6.586904761904762 13.31470588235294  8.341666666666667 14.294117647058822  10.476190476190476 14.294117647058822  C 11.48125 14.294117647058822  12.401190476190475 14.075735294117647  13.236011904761906 13.715073529411764  Z M 6.25625 8.440808823529412  L 6.285714285714286 8.440808823529412  C 6.285714285714286 8.374632352941177  6.2889880952380945 8.281985294117648  6.295535714285715 8.189338235294118  L 8.132142857142858 9.651838235294116  C 8.475892857142856 10.350000000000001  9.117559523809524 10.87279411764706  9.886904761904763 11.021691176470588  L 11.726785714285715 12.513970588235294  C 11.330654761904762 12.609926470588235  10.911607142857143 12.705882352941178  10.446726190476191 12.705882352941178  C 8.161607142857143 12.705882352941178  6.25625 10.809926470588236  6.25625 8.440808823529412  Z " fill-rule="nonzero" fill="#4a4a4a" stroke="none" transform="matrix(1 0 0 1 1 3 )" />
  </g>
</svg>