<?xml version="1.0" encoding="utf-8"?>
<svg version="1.1" xmlns:xlink="http://www.w3.org/1999/xlink" width="16px" height="16px" xmlns="http://www.w3.org/2000/svg">
  <g transform="matrix(1 0 0 1 -35 -1551 )">
    <path d="M 15.780740740740741 15.78028125  C 16.07173489278752 15.4875  16.07173489278752 15.0125  15.753606237816765 14.71875  L 11.574269005847954 10.53125  C 12.478752436647174 9.421875  12.977777777777778 8.025  12.977777777777778 6.5  C 12.977777777777778 2.909375  10.073138401559454 0  6.4904483430799225 0  C 2.9077582846003907 0  0.031182846003898635 2.9103125  0.031182846003898635 6.5  C 0.031182846003898635 10.0896875  2.93551656920078 13  6.490448343079922 13  C 8.012163742690058 13  9.408187134502922 12.4715625  10.51384015594542 11.5925  L 14.693177387914231 15.78  C 14.867836257309941 15.928125  15.06120857699805 16  15.251461988304094 16  C 15.441715399610137 16  15.634463937621831 15.92675  15.780740740740741 15.78028125  Z M 6.518518518518518 11.5  C 3.7670175438596485 11.5  1.5282651072124755 9.25625  1.5282651072124755 6.5  C 1.5282651072124755 3.743125  3.7670175438596494 1.5  6.518518518518518 1.5  C 9.270019493177388 1.5  11.508771929824562 3.743125  11.508771929824562 6.5  C 11.508771929824562 9.256875  9.270019493177388 11.5  6.518518518518518 11.5  Z " fill-rule="nonzero" fill="#4a4a4a" stroke="none" transform="matrix(1 0 0 1 35 1551 )" />
  </g>
</svg>