<?xml version="1.0" encoding="utf-8"?>
<svg version="1.1" xmlns:xlink="http://www.w3.org/1999/xlink" width="26px" height="29px" xmlns="http://www.w3.org/2000/svg">
  <g transform="matrix(1 0 0 1 -7 -6 )">
    <path d="M 24.65454589670412 24.044817929729465  L 17.70078719800972 24.044817927277204  C 17.71390728418646 24.17395568361781  17.719417105112825 24.303818988508738  17.717251606524997 24.43377821716922  C 17.714527034477896 26.954541129982506  15.601259672024073 28.997366247021247  12.993573900148249 29  C 10.389006675365636 28.9942035778896  8.280764229578153 26.95153320677426  8.280771131982192 24.43377821716922  C 8.278947153255558 24.30380876941201  8.284709685924781 24.173950294361163  8.297994396187732 24.044817927934034  L 1.345526445872565 24.04481792717087  C 0.7995207614130777 24.04481792717087  0.3565306279190281 23.61694709910418  0.3565306279190281 23.089141604126656  C 0.3565306279190281 22.981416041545984  0.37537229516010484 22.87446580574631  0.41225902125552233 22.772812654473558  L 1.715274345032185 19.18138078760916  L 1.715274345032185 10.908090294941513  C 1.715274345032185 4.883718375268028  6.7673968022058935 0  12.999505684626683 0  C 19.2316145670477 0  24.28373702422141 4.883718375268028  24.28373702422141 10.908090294941513  L 24.28373702422141 19.17946943483276  L 25.586752347998072 22.770901301697155  C 25.624096286558142 22.873120063806965  25.64317664312034 22.98073571474691  25.64317664312034 23.08914154152712  C 25.64317664312034 23.616947036504655  25.20055158116361 24.044817929729465  24.65454589670412 24.044817929729465  Z M 15.740484429065647 24.48410118118257  C 15.74399179195075 24.363553047377252  15.73288458779598 24.19268535495274  15.701869029656791 24.044817928746745  L 10.29065743944625 24.07444389520514  C 10.2658369299686 24.192654727981154  10.254892773454685 24.313195215481713  10.258032624814632 24.43377821716922  C 10.258032624814632 25.897382854741895  11.484937606247286 27.134191805667662  12.999011369253594 27.134191805667662  C 14.513085132259675 27.134191805667662  15.740484429065647 25.947705818755253  15.740484429065647 24.48410118118257  Z M 3.6935244686110313 10.908090294941513  L 3.6935244686110313 19.341934420827158  C 3.69364178922433 19.449639789872837  3.6749236505957015 19.556589440286672  3.6381611468116257 19.658263305322127  L 2.7404844290656456 22  L 23.26050420168076 22  L 22.36282748393478 19.66017465809854  C 22.326064980150704 19.55850079306308  22.307346841522076 19.45155114264924  22.307464162135375 19.343845773603558  L 22.307464162135375 10.908090294941513  C 22.307464162135375 5.939329365223083  18.14059182887513 1.9113527764046818  13.000494315373317 1.9113527764046818  C 7.860396801871502 1.9113527764046818  3.6935244686110313 5.939329365223083  3.6935244686110313 10.908090294941513  Z " fill-rule="nonzero" fill="#4a4a4a" stroke="none" transform="matrix(1 0 0 1 7 6 )" />
  </g>
</svg>