<?xml version="1.0" encoding="utf-8"?>
<svg version="1.1" xmlns:xlink="http://www.w3.org/1999/xlink" width="20px" height="20px" xmlns="http://www.w3.org/2000/svg">
  <g transform="matrix(1 0 0 1 -2 -2 )">
    <path d="M 20 10  C 20 4.4765625  15.5234375 0  10 0  C 4.476562499999999 0  0 4.476562499999999  0 10  C 0 15.5234375  4.476562499999999 20  10 20  C 15.5234375 20  20 15.5234375  20 10  Z M 18.125 10  C 18.125 14.480078125  14.48046875 18.125  10 18.125  C 5.51953125 18.125  1.875 14.480078125  1.875 10  C 1.875 5.519921875  5.51953125 1.875  10 1.875  C 14.48046875 1.875  18.125 5.519921875  18.125 10  Z M 9.0625 10.9375  C 9.0625 11.45703125  9.484375000000002 11.875  10 11.875  C 10.517578125 11.875  10.9375 11.455078125  10.9375 10.9375  L 10.9375 5.9375  C 10.9375 5.421875  10.51953125 5  10 5  C 9.480468749999998 5  9.0625 5.421875  9.0625 5.9375  L 9.0625 10.9375  Z M 11.228125 14.396875  C 11.2265625 13.71875  10.6796875 13.16796875  10 13.16796875  C 9.321874999999999 13.16796875  8.771875 13.71796875  8.771875 14.39609375  C 8.7734375 15.07421875  9.3203125 15.625  10 15.625  C 10.6796875 15.625  11.228125 15.075000000000001  11.228125 14.396875  Z " fill-rule="nonzero" fill="#d5233f" stroke="none" transform="matrix(1 0 0 1 2 2 )" />
  </g>
</svg>