<?xml version="1.0" encoding="utf-8"?>
<svg version="1.1" xmlns:xlink="http://www.w3.org/1999/xlink" width="22px" height="22px" xmlns="http://www.w3.org/2000/svg">
  <g transform="matrix(1 0 0 1 -1 -1 )">
    <path d="M 22 11  C 22 4.924218750000001  17.07578125 0  11 0  C 4.92421875 0  0 4.92421875  0 11  C 0 17.07578125  4.92421875 22  11 22  C 17.07578125 22  22 17.07578125  22 11  Z M 19.9375 11  C 19.9375 15.9280859375  15.928515625 19.9375  11 19.9375  C 6.071484375000001 19.9375  2.0625 15.9280859375  2.0625 11  C 2.0625 6.0719140625  6.071484375000001 2.0625  11 2.0625  C 15.928515625 2.0625  19.9375 6.0719140625  19.9375 11  Z M 13.75 15.46875  C 13.75 14.8994140625  13.290234375 14.4375  12.71875 14.4375  L 12.03125 14.4375  L 12.03125 10.65625  C 12.03125 10.0890625  11.571484375 9.625  11 9.625  L 9.625 9.625  C 9.0578125 9.625  8.59375 10.0890625  8.59375 10.65625  C 8.59375 11.2234375  9.0578125 11.6875  9.625 11.6875  L 9.96875 11.6875  L 9.96875 14.4375  L 9.28125 14.4375  C 8.7140625 14.4375  8.25 14.9015625  8.25 15.46875  C 8.25 16.0359375  8.7140625 16.5  9.28125 16.5  L 12.71875 16.5  C 13.2880859375 16.5  13.75 16.0380859375  13.75 15.46875  Z M 9.625 6.875  C 9.625 7.635546874999999  10.239453125 8.25  11 8.25  C 11.759257812500001 8.25  12.375 7.6342578125  12.375 6.875  C 12.375 6.1157421874999995  11.759257812500001 5.5  11 5.5  C 10.240742187499999 5.5  9.625 6.114453125000001  9.625 6.875  Z " fill-rule="nonzero" fill="#4a4a4a" stroke="none" transform="matrix(1 0 0 1 1 1 )" />
  </g>
</svg>