<?xml version="1.0" encoding="utf-8"?>
<svg version="1.1" xmlns:xlink="http://www.w3.org/1999/xlink" width="14px" height="16px" xmlns="http://www.w3.org/2000/svg">
  <g transform="matrix(1 0 0 1 -3 -2 )">
    <path d="M 11.709375 6.706249999999999  L 11.70625 6.70625  L 7.706250000000002 10.70625  C 7.315625 11.096875  6.68125 11.096875  6.290625 10.70625  L 2.2906250000000004 6.706250000000001  C 1.9000000000000004 6.315625000000001  1.9000000000000004 5.68125  2.2906250000000004 5.290625  C 2.6812500000000004 4.9  3.3156250000000003 4.9  3.70625 5.290625  L 6 7.584375  L 6 1  C 6 0.446875  6.446875 0  7 0  C 7.553125 0  8 0.446875  8 1  L 8 7.584375  L 10.29375 5.2906249999999995  C 10.684375 4.8999999999999995  11.31875 4.8999999999999995  11.709375 5.2906249999999995  C 12.1 5.6812499999999995  12.1 6.315624999999999  11.709375 6.706249999999999  Z M 1 10  C 1.553125 10  2 10.446875  2 11  L 2 13  C 2 13.553125  2.446875 14  3 14  L 11 14  C 11.553125 14  12 13.553125  12 13  L 12 11  C 12 10.446875  12.446875 10  13 10  C 13.553125 10  14 10.446875  14 11  L 14 13  C 14 14.65625  12.65625 16  11 16  L 3 16  C 1.34375 16  0 14.65625  0 13  L 0 11  C 0 10.446875  0.4468750000000001 10  1 10  Z " fill-rule="nonzero" fill="#014a93" stroke="none" transform="matrix(1 0 0 1 3 2 )" />
  </g>
</svg>