<?xml version="1.0" encoding="utf-8"?>
<svg version="1.1" xmlns:xlink="http://www.w3.org/1999/xlink" width="24px" height="24px" xmlns="http://www.w3.org/2000/svg">
  <g transform="matrix(1 0 0 1 -104 -1221 )">
    <path d="M 24 3.549295774647887  C 24 1.6822183098591548  22.4625 0.16901408450704225  20.57142857142857 0.16901408450704225  L 3.4285714285714284 0.16901408450704225  C 1.5348214285714286 0.16901408450704225  0 1.6822183098591548  0 3.549295774647887  L 0 20.450704225352112  C 0 22.317781690140848  1.5348214285714286 23.83098591549296  3.4285714285714284 23.83098591549296  L 20.57142857142857 23.83098591549296  C 22.465178571428574 23.83098591549296  24 22.317781690140848  24 20.450704225352112  L 24 3.549295774647887  Z M 18.857142857142858 22  L 5.142857142857142 22  C 5.142857142857142 19.344718309859154  7.450178571428571 17.070422535211268  10.285714285714285 17.070422535211268  L 13.714285714285714 17.070422535211268  C 16.550357142857145 17.070422535211268  18.857142857142858 19.344718309859154  18.857142857142858 22  Z M 22 3.549295774647887  L 22 20.450704225352112  C 22.285714285714285 21.382394366197182  21.51642857142857 22.140845070422536  20.57142857142857 22.140845070422536  C 20.57142857142857 18.407218309859154  17.50125 15.380281690140846  13.714285714285714 15.380281690140846  L 10.285714285714285 15.380281690140846  C 6.498749999999999 15.380281690140846  3.4285714285714284 18.407218309859154  3.4285714285714284 22.140845070422536  C 2.4835714285714285 22.140845070422536  1.7142857142857142 21.382394366197182  2 20.450704225352112  L 2 3.549295774647887  C 1.7142857142857142 2.617605633802817  2.4835714285714285 1.8591549295774645  3.4285714285714284 2  L 20.57142857142857 2  C 21.51642857142857 1.8591549295774645  22.285714285714285 2.617605633802817  22 3.549295774647887  Z M 16.285714285714285 9.464788732394366  C 16.285714285714285 7.130281690140844  14.367857142857144 5.23943661971831  12 5.23943661971831  C 9.632142857142858 5.23943661971831  7.714285714285715 7.130281690140844  7.714285714285715 9.464788732394366  C 7.714285714285715 11.799295774647888  9.632142857142858 13.690140845070424  12 13.690140845070424  C 14.366785714285715 13.690140845070424  16.285714285714285 11.798239436619719  16.285714285714285 9.464788732394366  Z M 14.57142857142857 9.464788732394366  C 14.57142857142857 10.862852112676055  13.419642857142858 12  12 12  C 10.580357142857142 12  9.428571428571429 10.86443661971831  9.428571428571429 9.464788732394366  C 9.428571428571429 8.065140845070424  10.580357142857142 6.929577464788732  12 6.929577464788732  C 13.419642857142858 6.929577464788732  14.57142857142857 8.066725352112675  14.57142857142857 9.464788732394366  Z " fill-rule="nonzero" fill="#393939" stroke="none" transform="matrix(1 0 0 1 104 1221 )" />
  </g>
</svg>